<?xml version="1.0" encoding="utf-8"?>
<!-- Generator: Adobe Illustrator 19.0.0, SVG Export Plug-In . SVG Version: 6.00 Build 0)  -->
<svg version="1.1" id="Layer_1" xmlns="http://www.w3.org/2000/svg" xmlns:xlink="http://www.w3.org/1999/xlink" x="0px" y="0px"
	 viewBox="0 0 300 300" style="enable-background:new 0 0 300 300;" xml:space="preserve">
<style type="text/css">
	.st0{fill:none;stroke:#000000;stroke-width:1.4174;stroke-linecap:round;stroke-linejoin:round;stroke-miterlimit:10;}
</style>
<g>
	<path class="st0" d="M144.2,154.4c-0.1,0.8-0.8,1-1,1.1c-4.7,1.6-8.5,3.9-10,6.3c-3.4,5.4,12,5.4,15.7,5.4c3.7,0,19.1,0,15.7-5.4
		c-1.6-2.5-5.3-4.8-10-6.3c-0.2-0.1-0.9-0.3-1-1.1 M145.1,151.2c-2.6-2.3-4-6-4-9.7c-0.1-5.8,3.8-8.7,8-8.8c4.2,0.1,8.1,3,8,8.8
		c0,3.6-1.4,7.3-3.9,9.6C150.3,153.7,147.9,153.7,145.1,151.2L145.1,151.2z"/>
</g>
</svg>
